<?xml version="1.0" encoding="UTF-8" standalone="no"?>
<!-- Created with Inkscape (http://www.inkscape.org/) -->

<svg
   xmlns:dc="http://purl.org/dc/elements/1.1/"
   xmlns:cc="http://creativecommons.org/ns#"
   xmlns:rdf="http://www.w3.org/1999/02/22-rdf-syntax-ns#"
   xmlns:svg="http://www.w3.org/2000/svg"
   xmlns="http://www.w3.org/2000/svg"
   xmlns:sodipodi="http://sodipodi.sourceforge.net/DTD/sodipodi-0.dtd"
   xmlns:inkscape="http://www.inkscape.org/namespaces/inkscape"
   width="406"
   height="512"
   viewBox="0 0 406 512"
   version="1.1"
   id="SVGRoot"
   sodipodi:docname="drawing.svg"
   inkscape:version="0.92.3 (2405546, 2018-03-11)">
  <sodipodi:namedview
     id="base"
     pagecolor="#ffffff"
     bordercolor="#666666"
     borderopacity="1.0"
     inkscape:pageopacity="0.0"
     inkscape:pageshadow="2"
     inkscape:zoom="0.90140845"
     inkscape:cx="126.07773"
     inkscape:cy="352.919"
     inkscape:document-units="px"
     inkscape:current-layer="layer1"
     showgrid="false"
     inkscape:window-width="1920"
     inkscape:window-height="1016"
     inkscape:window-x="0"
     inkscape:window-y="27"
     inkscape:window-maximized="1" />
  <defs
     id="defs4692" />
  <metadata
     id="metadata4695">
    <rdf:RDF>
      <cc:Work
         rdf:about="">
        <dc:format>image/svg+xml</dc:format>
        <dc:type
           rdf:resource="http://purl.org/dc/dcmitype/StillImage" />
        <dc:title></dc:title>
      </cc:Work>
    </rdf:RDF>
  </metadata>
  <g
     id="layer1"
     inkscape:groupmode="layer"
     inkscape:label="Layer 1"
     transform="translate(0,422)">
    <g
       id="g8"
       transform="matrix(-5.6888889,0,0,5.6888889,485.42681,-450.44625)"
       style="fill:#de3423;fill-opacity:1;fill-rule:evenodd;stroke:none;stroke-width:1">
      <path
         d="m 66.268765,34.798583 c 1.242837,0 2.226878,1.107813 2.018204,2.389521 -0.163665,1.005522 -1.108836,1.702125 -2.127656,1.702125 h -8.640534 c -1.129295,0 -2.045823,-0.915506 -2.045823,-2.045823 v -8.639512 c 0,-1.01882 0.696602,-1.96399 1.702124,-2.127656 1.281709,-0.208674 2.389522,0.775367 2.389522,2.018205 v 3.676344 L 84.678105,8.5486245 C 85.019758,8.2325448 85.221271,7.8274718 85.296967,7.4019405 85.404372,6.794331 85.243775,6.1458051 84.791648,5.6578762 84.022419,4.8262491 82.727413,4.7771493 81.9009,5.544333 L 70.763439,15.84403 C 66.338323,12.565598 61.010999,10.437942 55.220296,9.9111427 40.13235,8.5343037 26.376235,18.09239 22.444162,32.642285 c -0.002,0.0072 -0.0051,0.01432 -0.0072,0.02046 l -8.05236,24.294151 c -0.684328,2.064236 -0.47054,4.369878 0.762069,6.160997 1.276593,1.854538 3.309119,2.922458 5.550318,2.922458 h 0.670007 v 5.804001 c 0,9.027195 7.318933,16.345104 16.345105,16.345104 h 3.772498 v 4.654248 c 0,1.019843 0.696603,1.963991 1.703148,2.127656 1.280685,0.208674 2.388499,-0.775366 2.388499,-2.017181 v -6.821798 c 0,-0.546235 -0.21788,-1.069965 -0.605564,-1.453557 -0.383592,-0.3795 -0.901185,-0.592266 -1.44026,-0.592266 -0.0849,0.0041 -0.164688,0.0041 -0.303804,0.01125 h -5.513494 c -6.767583,0 -12.254481,-5.486898 -12.254481,-12.254481 v -7.848801 c 0,-1.130317 -0.915506,-2.045823 -2.045823,-2.045823 h -2.646273 c -0.682282,0 -1.364564,-0.225041 -1.85863,-0.694557 -0.783551,-0.742634 -1.041324,-1.796233 -0.717061,-2.776182 0,0 8.144422,-24.545788 8.167949,-24.635804 3.363333,-12.702516 15.357995,-21.047429 28.49218,-19.85676 4.749379,0.432691 9.140739,2.105152 12.850839,4.690049 l -4.071188,3.764315 C 57.294761,18.248895 49.215805,18.268331 42.17715,21.169308 38.440454,22.70879 37.309114,27.44794 40.01983,30.445071 l 22.049883,24.386213 c 2.87029,3.175117 8.092254,2.250405 9.675721,-1.725652 3.932072,-9.878258 1.545619,-18.124971 -1.509818,-23.409333 -0.54828,-0.948239 -1.823851,-1.156913 -2.62786,-0.413256 l -5.964598,5.51554 z M 35.351261,45.567796 c -2.450896,0 -4.43739,1.985471 -4.43739,4.436368 0,2.449873 1.986494,4.436367 4.43739,4.436367 2.449874,0 4.436368,-1.986494 4.436368,-4.436367 0,-2.450897 -1.986494,-4.436368 -4.436368,-4.436368 z M 74.397843,25.404162 c -0.584082,-0.837765 -0.46031,-1.975242 0.289484,-2.668776 v 0 c 0.912438,-0.843902 2.370087,-0.697626 3.078964,0.322217 2.915299,4.186777 4.822006,9.12744 5.360057,14.478291 0.441898,4.391359 -0.01739,8.709069 -1.36661,12.833449 -0.46747,1.431053 -0.951307,2.869267 -1.438213,4.314641 -0.799917,2.37827 -1.627453,4.837349 -2.381339,7.270856 -3.078964,9.933495 -2.927573,20.384583 0.435761,30.229084 0.303804,0.88891 0.04808,1.914891 -0.726267,2.446805 C 77.280408,94.884411 76.872267,95 76.4764,95 75.627383,95 74.834627,94.467063 74.542074,93.619069 70.858569,82.916345 70.682629,71.547705 74.032664,60.74269 c 0.76923,-2.479538 1.603925,-4.962144 2.411003,-7.362918 0.482814,-1.434122 0.963583,-2.862107 1.426961,-4.281908 1.171234,-3.579168 1.569147,-7.331208 1.184532,-11.152805 -0.466448,-4.637882 -2.129702,-8.912629 -4.657317,-12.540897 z"
         id="path6"
         inkscape:connector-curvature="0"
         style="fill:#de3423;fill-opacity:1" />
    </g>
  </g>
</svg>
